<svg xmlns="http://www.w3.org/2000/svg" width="986" height="986" viewBox="0 0 986 986"><path d="M907.8 169.7C883.4 145.3 854.9 126 823.3 112.6c-32.9-14-67.8-21.1-103.6-21.1H75c-41.4 0-75 33.6-75 75 0 41.4 33.6 75 75 75h644.7c30.9 0 60 12.2 82.1 34.2 22.1 22.1 34.2 51.2 34.2 82.1v97c0 30.9-12.2 60-34.2 82.1 -22.1 22.1-51.2 34.2-82.1 34.2h-284L479.8 527c29.3-29.3 29.3-76.8 0-106.1s-76.8-29.3-106.1 0L201 593.7c-29.3 29.3-29.3 76.8 0 106.1l172.7 172.7c14.6 14.6 33.8 22 53 22s38.4-7.3 53-22c29.3-29.3 29.3-76.8 0-106.1l-45.2-45.2h285.2c35.8 0 70.7-7.1 103.6-21.1C855 686.7 883.4 667.4 907.8 643c24.4-24.4 43.7-52.9 57.1-84.5 14-32.9 21.1-67.8 21.1-103.6v-97c0-35.8-7.1-70.7-21.1-103.6C951.5 222.6 932.3 194.2 907.8 169.7z"/></svg>